<?xml version="1.0" encoding="utf-8"?>
<svg viewBox="108.6576 143.948 238.8852 91.2279" width="238.8852" height="91.2279" xmlns="http://www.w3.org/2000/svg">
  <g transform="matrix(0.199071004986763, 0, 0, -0.21562500298023224, 102.68545685239815, 240.20390677755924)" fill="#001858" stroke="none" class="assinatura-icone" style="">
    <path d="M212 434 c-13 -11 -25 -35 -29 -56 -5 -34 -3 -38 16 -38 15 0 21 6 21 21 0 11 5 29 11 40 5 11 9 27 7 36 -3 13 -6 13 -26 -3z" style="stroke: rgb(251, 251, 251); fill: rgb(255, 255, 255);"/>
    <path d="M264 437 c3 -7 11 -31 18 -54 8 -30 18 -43 30 -43 10 0 18 7 18 15 0 32 -28 82 -49 88 -15 4 -20 1 -17 -6z" style="stroke: rgb(251, 251, 251); fill: rgb(255, 255, 255);"/>
    <path d="M55 320 c-18 -20 -18 -20 28 -20 25 0 53 -3 62 -6 13 -5 16 -2 13 17 -2 20 -9 24 -44 27 -30 2 -45 -2 -59 -18z" style="stroke: rgb(251, 251, 251); fill: rgb(255, 255, 255);"/>
    <path d="M354 334 c-7 -3 -10 -13 -7 -23 4 -15 13 -17 56 -13 61 5 64 7 47 27 -12 14 -70 20 -96 9z" style="stroke: rgb(251, 251, 251); fill: rgb(255, 255, 255);"/>
    <path d="M542 211 c4 -116 13 -131 72 -131 71 0 80 13 84 129 4 97 3 101 -16 101 -20 0 -21 -6 -24 -91 -2 -73 -6 -94 -20 -102 -12 -8 -21 -7 -32 2 -12 10 -16 33 -16 102 l0 89 -26 0 -26 0 4 -99z" style="stroke: rgb(251, 251, 251); fill: rgb(255, 255, 255);"/>
    <path d="M740 195 l0 -115 25 0 c23 0 25 4 25 45 0 43 1 45 30 45 23 0 30 4 30 20 0 16 -7 20 -30 20 -27 0 -30 3 -30 30 0 28 2 30 40 30 33 0 40 3 40 20 0 18 -7 20 -65 20 l-65 0 0 -115z" style="stroke: rgb(251, 251, 251); fill: rgb(255, 255, 255);"/>
    <path d="M910 290 c-39 -39 -22 -87 39 -115 25 -11 41 -25 41 -35 0 -32 -52 -36 -64 -5 -3 8 -13 11 -25 8 -26 -7 -26 -14 -1 -41 42 -45 140 -18 140 39 0 35 -19 57 -65 78 -49 22 -56 35 -26 50 14 8 22 7 31 -4 7 -8 18 -15 26 -15 22 0 27 20 8 41 -23 25 -78 25 -104 -1z" style="stroke: rgb(251, 251, 251); fill: rgb(255, 255, 255);"/>
    <path d="M1080 195 l0 -115 59 0 c68 0 91 15 91 60 0 16 -7 36 -16 44 -14 15 -14 17 0 32 22 21 20 50 -4 74 -15 15 -33 20 -75 20 l-55 0 0 -115z m100 52 c0 -19 -21 -37 -42 -37 -13 0 -18 8 -18 29 0 16 6 31 13 34 17 6 47 -11 47 -26z m-1 -81 c15 -17 5 -44 -20 -51 -27 -9 -39 2 -39 36 0 24 4 29 24 29 13 0 29 -6 35 -14z" style="stroke: rgb(251, 251, 251); fill: rgb(255, 255, 255);"/>
    <path d="M228 278 c17 -18 26 -20 39 -12 9 6 19 17 21 25 3 9 -3 7 -17 -6 -22 -19 -24 -19 -36 -2 -6 9 -16 17 -21 17 -5 0 2 -10 14 -22z" style="stroke: rgb(251, 251, 251); fill: rgb(255, 255, 255);"/>
    <path d="M30 266 c0 -18 28 -49 61 -70 25 -16 27 -16 32 6 4 12 5 23 4 23 -1 0 -21 13 -44 28 -49 31 -53 32 -53 13z" style="stroke: rgb(251, 251, 251); fill: rgb(255, 255, 255);"/>
    <path d="M200 261 c10 -19 9 -25 -1 -32 -8 -5 -17 -9 -21 -9 -5 0 -8 -5 -8 -10 0 -15 40 7 47 26 3 9 -2 23 -12 32 -16 16 -17 16 -5 -7z" style="stroke: rgb(251, 251, 251); fill: rgb(255, 255, 255);"/>
    <path d="M296 264 c-11 -28 -6 -41 19 -52 15 -7 25 -8 25 -2 0 6 -7 10 -15 10 -21 0 -30 27 -15 45 7 9 8 15 2 15 -5 0 -13 -7 -16 -16z" style="stroke: rgb(251, 251, 251); fill: rgb(255, 255, 255);"/>
    <path d="M425 253 c-22 -14 -41 -27 -43 -28 -1 -1 1 -11 5 -22 8 -20 9 -20 46 3 26 18 37 31 37 49 0 14 -1 25 -3 25 -1 0 -20 -12 -42 -27z" style="stroke: rgb(251, 251, 251); fill: rgb(255, 255, 255);"/>
    <path d="M190 190 c-12 -9 -10 -10 10 -8 19 2 26 -2 28 -19 2 -13 7 -23 12 -23 4 0 5 12 1 28 -8 29 -28 38 -51 22z" style="stroke: rgb(251, 251, 251); fill: rgb(255, 255, 255);"/>
    <path d="M272 188 c-7 -7 -12 -21 -11 -32 1 -19 2 -18 12 4 9 18 19 24 37 23 23 -2 23 -2 5 6 -27 13 -29 13 -43 -1z" style="stroke: rgb(251, 251, 251); fill: rgb(255, 255, 255);"/>
    <path d="M105 141 c-18 -35 -17 -82 1 -88 7 -2 19 17 28 44 14 41 14 49 2 61 -12 13 -16 10 -31 -17z" style="stroke: rgb(251, 251, 251); fill: rgb(255, 255, 255);"/>
    <path d="M368 159 c-15 -8 -15 -13 -4 -42 7 -17 16 -41 20 -51 6 -18 8 -18 22 -4 14 14 14 22 4 54 -16 49 -21 55 -42 43z" style="stroke: rgb(251, 251, 251); fill: rgb(255, 255, 255);"/>
    <path d="M171 71 c-42 -36 -43 -39 -23 -45 24 -8 49 3 76 33 17 19 18 23 5 36 -12 12 -20 9 -58 -24z" style="stroke: rgb(251, 251, 251); fill: rgb(255, 255, 255);"/>
    <path d="M273 93 c-21 -8 -15 -19 26 -48 29 -19 46 -25 62 -20 21 7 21 9 -17 41 -39 33 -48 37 -71 27z" style="stroke: rgb(251, 251, 251); fill: rgb(255, 255, 255);"/>
  </g>
</svg>