<?xml version="1.0" encoding="utf-8"?>
<svg viewBox="184.0273 166.7014 91.7624 88.9526" width="91.7624" height="88.9526" xmlns="http://www.w3.org/2000/svg">
  <path d="M 574.761 204.03 C 561.761 193.03 549.761 169.03 545.761 148.03 C 540.761 114.03 542.761 110.03 561.761 110.03 C 576.761 110.03 582.761 116.03 582.761 131.03 C 582.761 142.03 587.761 160.03 593.761 171.03 C 598.761 182.03 602.761 198.03 600.761 207.03 C 597.761 220.03 594.761 220.03 574.761 204.03 Z" style="stroke: rgb(251, 251, 251); fill: rgb(255, 255, 255);" transform="matrix(0.20855098962783813, 0, 0, -0.21024700999259946, 102.11657867009308, 212.20604259082734)"/>
  <path d="M 626.761 207.03 C 629.761 200.03 637.761 176.03 644.761 153.03 C 652.761 123.03 662.761 110.03 674.761 110.03 C 684.761 110.03 692.761 117.03 692.761 125.03 C 692.761 157.03 664.761 207.03 643.761 213.03 C 628.761 217.03 623.761 214.03 626.761 207.03 Z" style="stroke: rgb(251, 251, 251); fill: rgb(255, 255, 255);" transform="matrix(0.20855098962783813, 0, 0, -0.21024700999259946, 102.11657867009308, 212.20604259082734)"/>
  <path d="M 417.761 90.03 C 399.761 70.03 399.761 70.03 445.761 70.03 C 470.761 70.03 498.761 67.03 507.761 64.03 C 520.761 59.03 523.761 62.03 520.761 81.03 C 518.761 101.03 511.761 105.03 476.761 108.03 C 446.761 110.03 431.761 106.03 417.761 90.03 Z" style="stroke: rgb(251, 251, 251); fill: rgb(255, 255, 255);" transform="matrix(0.20855098962783813, 0, 0, -0.21024700999259946, 102.11657867009308, 212.20604259082734)"/>
  <path d="M 716.761 104.03 C 709.761 101.03 706.761 91.03 709.761 81.03 C 713.761 66.03 722.761 64.03 765.761 68.03 C 826.761 73.03 829.761 75.03 812.761 95.03 C 800.761 109.03 742.761 115.03 716.761 104.03 Z" style="stroke: rgb(251, 251, 251); fill: rgb(255, 255, 255);" transform="matrix(0.20855098962783813, 0, 0, -0.21024700999259946, 102.11657867009308, 212.20604259082734)"/>
  <path d="M 590.761 48.03 C 607.761 30.03 616.761 28.03 629.761 36.03 C 638.761 42.03 648.761 53.03 650.761 61.03 C 653.761 70.03 647.761 68.03 633.761 55.03 C 611.761 36.03 609.761 36.03 597.761 53.03 C 591.761 62.03 581.761 70.03 576.761 70.03 C 571.761 70.03 578.761 60.03 590.761 48.03 Z" style="stroke: rgb(251, 251, 251); fill: rgb(255, 255, 255);" transform="matrix(0.20855098962783813, 0, 0, -0.21024700999259946, 102.11657867009308, 212.20604259082734)"/>
  <path d="M 392.761 36.03 C 392.761 18.03 420.761 -12.97 453.761 -33.97 C 478.761 -49.97 480.761 -49.97 485.761 -27.97 C 489.761 -15.97 490.761 -4.97 489.761 -4.97 C 488.761 -4.97 468.761 8.03 445.761 23.03 C 396.761 54.03 392.761 55.03 392.761 36.03 Z" style="stroke: rgb(251, 251, 251); fill: rgb(255, 255, 255);" transform="matrix(0.20855098962783813, 0, 0, -0.21024700999259946, 102.11657867009308, 212.20604259082734)"/>
  <path d="M 562.761 31.03 C 572.761 12.03 571.761 6.03 561.761 -0.97 C 553.761 -5.97 544.761 -9.97 540.761 -9.97 C 535.761 -9.97 532.761 -14.97 532.761 -19.97 C 532.761 -34.97 572.761 -12.97 579.761 6.03 C 582.761 15.03 577.761 29.03 567.761 38.03 C 551.761 54.03 550.761 54.03 562.761 31.03 Z" style="stroke: rgb(251, 251, 251); fill: rgb(255, 255, 255);" transform="matrix(0.20855098962783813, 0, 0, -0.21024700999259946, 102.11657867009308, 212.20604259082734)"/>
  <path d="M 658.761 34.03 C 647.761 6.03 652.761 -6.97 677.761 -17.97 C 692.761 -24.97 702.761 -25.97 702.761 -19.97 C 702.761 -13.97 695.761 -9.97 687.761 -9.97 C 666.761 -9.97 657.761 17.03 672.761 35.03 C 679.761 44.03 680.761 50.03 674.761 50.03 C 669.761 50.03 661.761 43.03 658.761 34.03 Z" style="stroke: rgb(251, 251, 251); fill: rgb(255, 255, 255);" transform="matrix(0.20855098962783813, 0, 0, -0.21024700999259946, 102.11657867009308, 212.20604259082734)"/>
  <path d="M 787.761 23.03 C 765.761 9.03 746.761 -3.97 744.761 -4.97 C 743.761 -5.97 745.761 -15.97 749.761 -26.97 C 757.761 -46.97 758.761 -46.97 795.761 -23.97 C 821.761 -5.97 832.761 7.03 832.761 25.03 C 832.761 39.03 831.761 50.03 829.761 50.03 C 828.761 50.03 809.761 38.03 787.761 23.03 Z" style="stroke: rgb(251, 251, 251); fill: rgb(255, 255, 255);" transform="matrix(0.20855098962783813, 0, 0, -0.21024700999259946, 102.11657867009308, 212.20604259082734)"/>
  <path d="M 552.761 -39.97 C 540.761 -48.97 542.761 -49.97 562.761 -47.97 C 581.761 -45.97 588.761 -49.97 590.761 -66.97 C 592.761 -79.97 597.761 -89.97 602.761 -89.97 C 606.761 -89.97 607.761 -77.97 603.761 -61.97 C 595.761 -32.97 575.761 -23.97 552.761 -39.97 Z" style="stroke: rgb(251, 251, 251); fill: rgb(255, 255, 255);" transform="matrix(0.20855098962783813, 0, 0, -0.21024700999259946, 102.11657867009308, 212.20604259082734)"/>
  <path d="M 634.761 -41.97 C 627.761 -48.97 622.761 -62.97 623.761 -73.97 C 624.761 -92.97 625.761 -91.97 635.761 -69.97 C 644.761 -51.97 654.761 -45.97 672.761 -46.97 C 695.761 -48.97 695.761 -48.97 677.761 -40.97 C 650.761 -27.97 648.761 -27.97 634.761 -41.97 Z" style="stroke: rgb(251, 251, 251); fill: rgb(255, 255, 255);" transform="matrix(0.20855098962783813, 0, 0, -0.21024700999259946, 102.11657867009308, 212.20604259082734)"/>
  <path d="M 467.761 -88.97 C 449.761 -123.97 450.761 -170.97 468.761 -176.97 C 475.761 -178.97 487.761 -159.97 496.761 -132.97 C 510.761 -91.97 510.761 -83.97 498.761 -71.97 C 486.761 -58.97 482.761 -61.97 467.761 -88.97 Z" style="stroke: rgb(251, 251, 251); fill: rgb(255, 255, 255);" transform="matrix(0.20855098962783813, 0, 0, -0.21024700999259946, 102.11657867009308, 212.20604259082734)"/>
  <path d="M 730.761 -70.97 C 715.761 -78.97 715.761 -83.97 726.761 -112.97 C 733.761 -129.97 742.761 -153.97 746.761 -163.97 C 752.761 -181.97 754.761 -181.97 768.761 -167.97 C 782.761 -153.97 782.761 -145.97 772.761 -113.97 C 756.761 -64.97 751.761 -58.97 730.761 -70.97 Z" style="stroke: rgb(251, 251, 251); fill: rgb(255, 255, 255);" transform="matrix(0.20855098962783813, 0, 0, -0.21024700999259946, 102.11657867009308, 212.20604259082734)"/>
  <path d="M 533.761 -158.97 C 491.761 -194.97 490.761 -197.97 510.761 -203.97 C 534.761 -211.97 559.761 -200.97 586.761 -170.97 C 603.761 -151.97 604.761 -147.97 591.761 -134.97 C 579.761 -122.97 571.761 -125.97 533.761 -158.97 Z" style="stroke: rgb(251, 251, 251); fill: rgb(255, 255, 255);" transform="matrix(0.20855098962783813, 0, 0, -0.21024700999259946, 102.11657867009308, 212.20604259082734)"/>
  <path d="M 635.761 -136.97 C 614.761 -144.97 620.761 -155.97 661.761 -184.97 C 690.761 -203.97 707.761 -209.97 723.761 -204.97 C 744.761 -197.97 744.761 -195.97 706.761 -163.97 C 667.761 -130.97 658.761 -126.97 635.761 -136.97 Z" style="stroke: rgb(251, 251, 251); fill: rgb(255, 255, 255);" transform="matrix(0.20855098962783813, 0, 0, -0.21024700999259946, 102.11657867009308, 212.20604259082734)"/>
</svg>